<svg width="205" height="33" viewBox="0 0 205 33" fill="none" xmlns="http://www.w3.org/2000/svg">
<path d="M15.3516 7.15349C15.1406 7.23638 15 7.44604 15 7.68004C15 7.91404 15.1406 8.1236 15.3516 8.20649C17.0344 8.86314 18.3623 10.2442 18.9938 11.9944C19.0734 12.2137 19.275 12.3601 19.5 12.3601C19.725 12.3601 19.9266 12.2137 20.0062 11.9944C20.6377 10.2442 21.9656 8.86314 23.6484 8.20649C23.8594 8.1236 24 7.91404 24 7.68004C24 7.44604 23.8594 7.23638 23.6484 7.15349C21.9656 6.49684 20.6377 5.11579 20.0062 3.36562C19.9266 3.14625 19.725 3 19.5 3C19.275 3 19.0734 3.14625 18.9938 3.36562C18.3623 5.11579 17.0344 6.49684 15.3516 7.15349ZM9.61408 6.57338C9.49218 6.29549 9.22498 6.12004 8.93438 6.12004C8.6438 6.12004 8.3766 6.29549 8.2547 6.57338C6.65741 10.16 3.88576 13.0415 0.43594 14.7001C0.16875 14.8267 0 15.1046 0 15.4117C0 15.7189 0.16875 15.9918 0.43594 16.1186C3.88455 17.7751 6.65851 20.658 8.25 24.2453C8.3719 24.5232 8.6391 24.6986 8.92968 24.6986C9.22028 24.6986 9.48748 24.5232 9.60938 24.2453C11.2039 20.6548 13.9757 17.7721 17.4281 16.1137C17.6953 15.9871 17.8641 15.7092 17.8641 15.4069C17.8641 15.1046 17.6953 14.8267 17.4281 14.7001C13.9789 13.0449 11.2069 10.1599 9.61408 6.57338ZM18.9938 18.9656C18.3623 20.7158 17.0344 22.0968 15.3516 22.7535C15.1406 22.8364 15 23.0461 15 23.2801C15 23.5141 15.1406 23.7236 15.3516 23.8065C17.0344 24.4632 18.3623 25.8442 18.9938 27.5944C19.0734 27.8137 19.275 27.96 19.5 27.96C19.725 27.96 19.9266 27.8137 20.0062 27.5944C20.6377 25.8442 21.9656 24.4632 23.6484 23.8065C23.8594 23.7236 24 23.5141 24 23.2801C24 23.0461 23.8594 22.8364 23.6484 22.7535C21.9656 22.0968 20.6377 20.7158 20.0062 18.9656C19.9266 18.7463 19.725 18.6001 19.5 18.6001C19.275 18.6001 19.0734 18.7463 18.9938 18.9656Z" fill="url(#paint0_linear_2052_939)"/>
<path d="M42.162 24.22C39.786 24.22 37.9673 23.582 36.706 22.306C35.4447 21.0153 34.814 19.2627 34.814 17.048C34.814 14.7013 35.4227 12.8753 36.64 11.57C37.872 10.2647 39.7053 9.612 42.14 9.612C42.9907 9.612 43.7533 9.678 44.428 9.81C45.1173 9.92733 45.7627 10.096 46.364 10.316V12.912C45.1173 12.3987 43.7827 12.142 42.36 12.142C40.7467 12.142 39.588 12.5453 38.884 13.352C38.18 14.1587 37.828 15.3907 37.828 17.048C37.828 20.1573 39.3533 21.712 42.404 21.712C43.0933 21.712 43.7753 21.6533 44.45 21.536C45.1247 21.404 45.77 21.2133 46.386 20.964V23.582C45.7847 23.7727 45.1393 23.9267 44.45 24.044C43.7753 24.1613 43.0127 24.22 42.162 24.22ZM54.9017 24.22C50.3111 24.22 48.0157 21.8073 48.0157 16.982C48.0157 14.386 48.5951 12.5087 49.7537 11.35C50.9124 10.1913 52.6284 9.612 54.9017 9.612C57.1751 9.612 58.8911 10.1913 60.0497 11.35C61.2084 12.5087 61.7877 14.386 61.7877 16.982C61.7877 21.8073 59.4924 24.22 54.9017 24.22ZM54.9017 21.69C56.2364 21.69 57.2117 21.3087 57.8277 20.546C58.4584 19.7687 58.7737 18.5807 58.7737 16.982C58.7737 15.2073 58.4584 13.9607 57.8277 13.242C57.2117 12.5087 56.2364 12.142 54.9017 12.142C53.5671 12.142 52.5844 12.5087 51.9537 13.242C51.3377 13.9607 51.0297 15.2073 51.0297 16.982C51.0297 18.5807 51.3377 19.7687 51.9537 20.546C52.5844 21.3087 53.5671 21.69 54.9017 21.69ZM64.3 24V9.832H66.874L73.584 19.27V9.832H76.554V24H73.98L67.27 14.562V24H64.3ZM82.9758 24V12.12H78.6198V9.832H90.2798V12.12H85.9458V24H82.9758ZM92.3577 24V9.832H102.522V12.142H95.3277V15.772H101.708V18.06H95.3277V21.712H102.522V24H92.3577ZM105.022 24V9.832H107.596L114.306 19.27V9.832H117.276V24H114.702L107.992 14.562V24H105.022ZM123.698 24V12.12H119.342V9.832H131.002V12.12H126.668V24H123.698ZM145.262 24.22C142.886 24.22 141.067 23.582 139.806 22.306C138.545 21.0153 137.914 19.2627 137.914 17.048C137.914 14.7013 138.523 12.8753 139.74 11.57C140.972 10.2647 142.805 9.612 145.24 9.612C146.091 9.612 146.853 9.678 147.528 9.81C148.217 9.92733 148.863 10.096 149.464 10.316V12.912C148.217 12.3987 146.883 12.142 145.46 12.142C143.847 12.142 142.688 12.5453 141.984 13.352C141.28 14.1587 140.928 15.3907 140.928 17.048C140.928 20.1573 142.453 21.712 145.504 21.712C146.193 21.712 146.875 21.6533 147.55 21.536C148.225 21.404 148.87 21.2133 149.486 20.964V23.582C148.885 23.7727 148.239 23.9267 147.55 24.044C146.875 24.1613 146.113 24.22 145.262 24.22ZM151.985 24V9.832H158.783C160.411 9.832 161.607 10.2647 162.369 11.13C163.132 11.9807 163.513 13.132 163.513 14.584C163.513 15.5373 163.264 16.3587 162.765 17.048C162.281 17.7373 161.592 18.236 160.697 18.544C160.932 18.7347 161.115 18.94 161.247 19.16C161.394 19.38 161.541 19.6733 161.687 20.04L163.403 24H160.323L158.651 20.194C158.505 19.8713 158.343 19.644 158.167 19.512C157.991 19.38 157.698 19.314 157.287 19.314H154.955V24H151.985ZM154.955 16.85H158.013C158.791 16.85 159.399 16.6813 159.839 16.344C160.279 15.992 160.499 15.4053 160.499 14.584C160.499 13.792 160.309 13.2127 159.927 12.846C159.546 12.4793 158.967 12.296 158.189 12.296H154.955V16.85ZM164.597 24L170.009 9.832H173.265L178.655 24H175.575L174.233 20.59H169.019L167.699 24H164.597ZM169.459 18.302H173.793L171.615 12.604L169.459 18.302ZM181.16 24V9.832H191.126V12.142H184.13V15.772H190.312V18.06H184.13V24H181.16ZM196.678 24V12.12H192.322V9.832H203.982V12.12H199.648V24H196.678Z" fill="url(#paint1_linear_2052_939)"/>
<defs>
<linearGradient id="paint0_linear_2052_939" x1="0" y1="3" x2="24.9408" y2="26.9816" gradientUnits="userSpaceOnUse">
<stop stop-color="#469967"/>
<stop offset="1" stop-color="#245F3B"/>
</linearGradient>
<linearGradient id="paint1_linear_2052_939" x1="117.589" y1="6.5" x2="120.206" y2="51.4867" gradientUnits="userSpaceOnUse">
<stop stop-color="#469967"/>
<stop offset="1" stop-color="#237644"/>
</linearGradient>
</defs>
</svg>
